<svg id="Capa_1" data-name="Capa 1" xmlns="http://www.w3.org/2000/svg" viewBox="0 0 1108 380.09"><defs><style>.cls-1{fill:#151515;}.cls-2{fill:#3f3f3f;}.cls-15,.cls-3{fill:#db0329;}.cls-4,.cls-5{fill:none;stroke-miterlimit:10;}.cls-4{stroke:#db0329;stroke-width:0.7px;}.cls-5{stroke:#b33ecc;}.cls-6{fill:#535454;}.cls-7{fill:#757575;}.cls-19,.cls-8{fill:#b33ecc;}.cls-9{font-size:34.68px;}.cls-12,.cls-13,.cls-15,.cls-19,.cls-9{font-family:Nunito-SemiBold, Nunito;font-weight:700;}.cls-10,.cls-13,.cls-14{font-size:20.81px;}.cls-11{letter-spacing:0em;}.cls-12{font-size:15.26px;}.cls-14{letter-spacing:0em;}.cls-15,.cls-19{font-size:24.28px;}.cls-16{letter-spacing:-0.01em;}.cls-17{letter-spacing:-0.09em;}.cls-18{letter-spacing:-0.06em;}</style></defs><title>audiokeys-mapping-02</title><rect class="cls-1" width="1116" height="380.09"/><rect class="cls-2" x="184.58" y="49.66" width="50.98" height="50.98" rx="8.32" ry="8.32"/><rect class="cls-3" x="262.95" y="49.66" width="50.98" height="50.98" rx="8.32" ry="8.32"/><rect class="cls-3" x="339.94" y="49.66" width="50.98" height="50.98" rx="8.32" ry="8.32"/><rect class="cls-2" x="418.31" y="49.66" width="50.98" height="50.98" rx="8.32" ry="8.32"/><rect class="cls-3" x="495.06" y="49.66" width="50.98" height="50.98" rx="8.32" ry="8.32"/><rect class="cls-3" x="573.43" y="49.66" width="50.98" height="50.98" rx="8.32" ry="8.32"/><rect class="cls-3" x="650.42" y="49.66" width="50.98" height="50.98" rx="8.32" ry="8.32"/><rect class="cls-2" x="728.79" y="49.66" width="50.98" height="50.98" rx="8.32" ry="8.32"/><rect class="cls-3" x="806.47" y="49.66" width="50.98" height="50.98" rx="8.32" ry="8.32"/><rect class="cls-4" x="176.04" y="31.39" width="889.19" height="160.34" rx="8.4" ry="8.4"/><rect class="cls-5" x="210.07" y="201.4" width="880.84" height="160.34" rx="8.37" ry="8.37"/><rect class="cls-3" x="884.84" y="49.66" width="50.98" height="50.98" rx="8.32" ry="8.32"/><rect class="cls-6" x="962.52" y="49.66" width="50.98" height="50.98" rx="8.32" ry="8.32"/><rect class="cls-7" x="224.34" y="128.56" width="50.98" height="50.98" rx="8.32" ry="8.32"/><rect class="cls-7" x="302.02" y="128.56" width="50.98" height="50.98" rx="8.32" ry="8.32"/><rect class="cls-7" x="379.01" y="128.56" width="50.98" height="50.98" rx="8.32" ry="8.32"/><rect class="cls-7" x="457.38" y="128.56" width="50.98" height="50.98" rx="8.32" ry="8.32"/><rect class="cls-7" x="534.82" y="128.56" width="50.98" height="50.98" rx="8.32" ry="8.32"/><rect class="cls-7" x="613.2" y="128.56" width="50.98" height="50.98" rx="8.32" ry="8.32"/><rect class="cls-7" x="690.18" y="128.56" width="50.98" height="50.98" rx="8.32" ry="8.32"/><rect class="cls-7" x="768.55" y="128.56" width="50.98" height="50.98" rx="8.32" ry="8.32"/><rect class="cls-7" x="846.23" y="128.56" width="50.98" height="50.98" rx="8.32" ry="8.32"/><rect class="cls-7" x="923.91" y="128.56" width="50.98" height="50.98" rx="8.32" ry="8.32"/><rect class="cls-7" x="1001.59" y="128.56" width="50.98" height="50.98" rx="8.32" ry="8.32"/><rect class="cls-2" x="237" y="206.75" width="50.98" height="50.98" rx="8.32" ry="8.32"/><rect class="cls-8" x="314.68" y="206.75" width="50.98" height="50.98" rx="8.32" ry="8.32"/><rect class="cls-8" x="391.66" y="206.75" width="50.98" height="50.98" rx="8.32" ry="8.32"/><rect class="cls-2" x="470.04" y="206.75" width="50.98" height="50.98" rx="8.32" ry="8.32"/><rect class="cls-8" x="547.48" y="206.75" width="50.98" height="50.98" rx="8.32" ry="8.32"/><rect class="cls-8" x="625.85" y="206.75" width="50.98" height="50.98" rx="8.32" ry="8.32"/><rect class="cls-8" x="702.84" y="206.75" width="50.98" height="50.98" rx="8.32" ry="8.32"/><rect class="cls-2" x="781.21" y="206.75" width="50.98" height="50.98" rx="8.32" ry="8.32"/><rect class="cls-8" x="858.89" y="206.75" width="50.98" height="50.98" rx="8.32" ry="8.32"/><rect class="cls-8" x="936.57" y="206.75" width="50.98" height="50.98" rx="8.32" ry="8.32"/><rect class="cls-2" x="1014.25" y="206.75" width="50.98" height="50.98" rx="8.32" ry="8.32"/><rect class="cls-7" x="276.07" y="283.57" width="50.98" height="50.98" rx="8.32" ry="8.32"/><rect class="cls-7" x="353.75" y="283.57" width="50.98" height="50.98" rx="8.32" ry="8.32"/><rect class="cls-7" x="430.73" y="283.57" width="50.98" height="50.98" rx="8.32" ry="8.32"/><rect class="cls-7" x="509.1" y="283.57" width="50.98" height="50.98" rx="8.32" ry="8.32"/><rect class="cls-7" x="586.55" y="283.57" width="50.98" height="50.98" rx="8.32" ry="8.32"/><rect class="cls-7" x="664.92" y="283.57" width="50.98" height="50.98" rx="8.32" ry="8.32"/><rect class="cls-7" x="741.91" y="283.57" width="50.98" height="50.98" rx="8.32" ry="8.32"/><rect class="cls-7" x="820.28" y="283.57" width="50.98" height="50.98" rx="8.32" ry="8.32"/><rect class="cls-7" x="897.96" y="283.57" width="50.98" height="50.98" rx="8.32" ry="8.32"/><rect class="cls-7" x="975.64" y="283.57" width="50.98" height="50.98" rx="8.32" ry="8.32"/><text class="cls-9" transform="translate(953.01 99.88)"><tspan xml:space="preserve">   - </tspan></text><text class="cls-9" transform="translate(872.91 75.15)"><tspan xml:space="preserve">  </tspan><tspan class="cls-10" x="18.31" y="0">127</tspan><tspan class="cls-11" x="55.76" y="0"> </tspan></text><text class="cls-9" transform="translate(795.43 75.15)"><tspan xml:space="preserve">  </tspan><tspan class="cls-10" x="18.31" y="0">112</tspan><tspan class="cls-11" x="55.76" y="0"> </tspan></text><text class="cls-9" transform="translate(724.92 75.15)"><tspan xml:space="preserve">  </tspan><tspan class="cls-10" x="18.31" y="0">98</tspan><tspan x="43.28" y="0"> </tspan></text><text class="cls-9" transform="translate(646.31 75.15)"><tspan xml:space="preserve">  </tspan><tspan class="cls-10" x="18.31" y="0">84</tspan><tspan x="43.28" y="0"> </tspan></text><text class="cls-9" transform="translate(568.81 75.15)"><tspan xml:space="preserve">  </tspan><tspan class="cls-10" x="18.31" y="0">70</tspan><tspan x="43.28" y="0"> </tspan></text><text class="cls-9" transform="translate(490.9 75.15)"><tspan xml:space="preserve">  </tspan><tspan class="cls-10" x="18.31" y="0">56</tspan><tspan x="43.26" y="0"> </tspan></text><text class="cls-9" transform="translate(411.6 75.15)"><tspan xml:space="preserve">  </tspan><tspan class="cls-10" x="18.31" y="0">42</tspan><tspan x="43.28" y="0"> </tspan></text><text class="cls-9" transform="translate(335.48 75.15)"><tspan xml:space="preserve">  </tspan><tspan class="cls-10" x="18.31" y="0">28</tspan><tspan x="43.28" y="0"> </tspan></text><text class="cls-9" transform="translate(257.81 75.15)"><tspan xml:space="preserve">  </tspan><tspan class="cls-10" x="18.31" y="0">14</tspan><tspan x="43.28" y="0"> </tspan></text><text class="cls-9" transform="translate(185.97 75.15)"><tspan xml:space="preserve">  </tspan><tspan class="cls-10" x="18.31" y="0">1</tspan><tspan x="30.79" y="0"> </tspan></text><text class="cls-12" transform="translate(197.76 93.88)"><tspan xml:space="preserve">  1 </tspan></text><text class="cls-12" transform="translate(274.74 93.88)"><tspan xml:space="preserve">  2 </tspan></text><text class="cls-12" transform="translate(351.96 93.88)"><tspan xml:space="preserve">  3 </tspan></text><text class="cls-12" transform="translate(430.1 93.88)"><tspan xml:space="preserve">  4 </tspan></text><text class="cls-12" transform="translate(506.85 93.88)"><tspan xml:space="preserve">  5 </tspan></text><text class="cls-12" transform="translate(585.22 93.88)"><tspan xml:space="preserve">  5 </tspan></text><text class="cls-12" transform="translate(663.13 93.88)"><tspan xml:space="preserve">  6 </tspan></text><text class="cls-12" transform="translate(740.58 93.88)"><tspan xml:space="preserve">  7 </tspan></text><text class="cls-12" transform="translate(818.49 93.88)"><tspan xml:space="preserve">  8 </tspan></text><text class="cls-12" transform="translate(896.17 93.88)"><tspan xml:space="preserve">  9 </tspan></text><text class="cls-13" transform="translate(974.19 309.05)"><tspan xml:space="preserve">  /</tspan></text><text class="cls-13" transform="translate(896.71 309.05)"><tspan xml:space="preserve">  . </tspan></text><text class="cls-13" transform="translate(826.2 309.05)"><tspan xml:space="preserve"> , </tspan></text><text class="cls-13" transform="translate(747.6 309.05)"><tspan xml:space="preserve">  M </tspan></text><text class="cls-13" transform="translate(670.09 309.05)"><tspan xml:space="preserve"> N </tspan></text><text class="cls-13" transform="translate(592.18 309.05)"><tspan xml:space="preserve">  B </tspan></text><text class="cls-13" transform="translate(512.88 309.05)"><tspan xml:space="preserve">  V </tspan></text><text class="cls-13" transform="translate(436.77 309.05)"><tspan xml:space="preserve">  C</tspan></text><text class="cls-9" transform="translate(347.99 309.05)"><tspan xml:space="preserve">  </tspan><tspan class="cls-10" x="18.31" y="0">X</tspan><tspan x="31.92" y="0"> </tspan></text><text class="cls-9" transform="translate(276.15 309.05)"><tspan xml:space="preserve">  </tspan><tspan class="cls-10" x="18.31" y="0">Z</tspan></text><text class="cls-9" transform="translate(927.88 232.24)"><tspan xml:space="preserve">  </tspan><tspan class="cls-10" x="18.31" y="0">;</tspan><tspan x="23.26" y="0"> </tspan></text><text class="cls-13" transform="translate(1019.44 232.24)"><tspan xml:space="preserve"> ’ </tspan></text><text class="cls-13" transform="translate(872.91 232.24)"><tspan xml:space="preserve">  L </tspan></text><text class="cls-9" transform="translate(773.65 232.24)"><tspan xml:space="preserve">  </tspan><tspan class="cls-10" x="18.31" y="0">K</tspan><tspan x="31.67" y="0"> </tspan></text><text class="cls-9" transform="translate(696.43 232.24)"><tspan xml:space="preserve">  </tspan><tspan class="cls-14" x="18.31" y="0">J</tspan><tspan x="25.41" y="0"> </tspan></text><text class="cls-9" transform="translate(616.85 232.24)"><tspan xml:space="preserve">  </tspan><tspan class="cls-10" x="18.31" y="0">H</tspan><tspan x="34.17" y="0"> </tspan></text><text class="cls-9" transform="translate(538.94 232.24)"><tspan xml:space="preserve">  </tspan><tspan class="cls-10" x="18.31" y="0">G</tspan><tspan x="33.46" y="0"> </tspan></text><text class="cls-9" transform="translate(461.03 232.24)"><tspan xml:space="preserve">  </tspan><tspan class="cls-10" x="18.31" y="0">F</tspan><tspan x="29.98" y="0"> </tspan></text><text class="cls-9" transform="translate(382.83 232.24)"><tspan xml:space="preserve">  </tspan><tspan class="cls-10" x="18.31" y="0">D</tspan><tspan x="33.83" y="0"> </tspan></text><text class="cls-9" transform="translate(305.15 232.24)"><tspan xml:space="preserve">  </tspan><tspan class="cls-10" x="18.31" y="0">S</tspan></text><text class="cls-9" transform="translate(226.38 232.24)"><tspan xml:space="preserve">  </tspan><tspan class="cls-10" x="18.31" y="0">A</tspan></text><text class="cls-9" transform="translate(914.36 154.04)"><tspan xml:space="preserve">  </tspan><tspan class="cls-10" x="18.31" y="0">P</tspan><tspan x="31.88" y="0"> </tspan></text><text class="cls-9" transform="translate(837.57 154.04)"><tspan xml:space="preserve">  </tspan><tspan class="cls-10" x="18.31" y="0">O</tspan><tspan x="34.35" y="0"> </tspan></text><text class="cls-13" transform="translate(770.53 154.04)"><tspan xml:space="preserve">  I </tspan></text><text class="cls-9" transform="translate(680.83 154.04)"><tspan xml:space="preserve">  </tspan><tspan class="cls-10" x="18.31" y="0">U</tspan><tspan x="33.46" y="0"> </tspan></text><text class="cls-9" transform="translate(604.71 154.04)"><tspan xml:space="preserve">  </tspan><tspan class="cls-10" x="18.31" y="0">Y</tspan><tspan class="cls-11" x="31.02" y="0"> </tspan></text><text class="cls-9" transform="translate(526.8 154.04)"><tspan xml:space="preserve">  </tspan><tspan class="cls-10" x="18.31" y="0">T</tspan></text><text class="cls-13" transform="translate(455.83 154.04)"><tspan xml:space="preserve">  R </tspan></text><text class="cls-9" transform="translate(369.31 154.04)"><tspan xml:space="preserve">  </tspan><tspan class="cls-10" x="18.31" y="0">E</tspan><tspan class="cls-11" x="30.48" y="0"> </tspan></text><text class="cls-9" transform="translate(290.24 154.74)"><tspan xml:space="preserve">  </tspan><tspan class="cls-10" x="18.31" y="0">W</tspan><tspan x="41.3" y="0"> </tspan></text><text class="cls-13" transform="translate(221.17 154.04)"><tspan xml:space="preserve">  Q </tspan></text><text class="cls-15" transform="translate(41.61 85.31)">O<tspan class="cls-16" x="18.72" y="0">C</tspan><tspan class="cls-17" x="34.91" y="0">T</tspan><tspan class="cls-18" x="47.53" y="0">A</tspan><tspan x="63.77" y="0">VE 2</tspan></text><text class="cls-19" transform="translate(29.71 287.36)">O<tspan class="cls-16" x="18.72" y="0">C</tspan><tspan class="cls-17" x="34.91" y="0">T</tspan><tspan class="cls-18" x="47.53" y="0">A</tspan><tspan x="63.77" y="0">V</tspan><tspan class="cls-16" x="80.79" y="0">E</tspan><tspan x="94.75" y="0">S 1</tspan></text><text class="cls-13" transform="translate(996.9 154.04)"><tspan xml:space="preserve">  [ </tspan></text></svg>