<?xml version="1.0" encoding="utf-8"?>
<!-- Generator: Adobe Illustrator 21.1.0, SVG Export Plug-In . SVG Version: 6.00 Build 0)  -->
<svg version="1.1" id="Capa_1" xmlns="http://www.w3.org/2000/svg" xmlns:xlink="http://www.w3.org/1999/xlink" x="0px" y="0px"
	 viewBox="0 0 1108 380.1" style="enable-background:new 0 0 1108 380.1;" xml:space="preserve">
<style type="text/css">
	.st0{fill:#0D0D0D;stroke:#1E120D;stroke-miterlimit:10;}
	.st1{clip-path:url(#SVGID_2_);fill:#DB0329;}
	.st2{clip-path:url(#SVGID_4_);fill:#DB0329;}
	.st3{clip-path:url(#SVGID_6_);fill:#DB0329;}
	.st4{fill:#151515;}
	.st5{clip-path:url(#SVGID_8_);fill:#DB0329;}
	.st6{clip-path:url(#SVGID_10_);fill:#DB0329;}
	.st7{clip-path:url(#SVGID_12_);fill:#DB0329;}
	.st8{clip-path:url(#SVGID_14_);fill:#DB0329;}
	.st9{clip-path:url(#SVGID_16_);fill:#DB0329;}
	.st10{clip-path:url(#SVGID_18_);fill:#DB0329;}
	.st11{clip-path:url(#SVGID_20_);fill:#DB0329;}
	.st12{clip-path:url(#SVGID_22_);fill:#DB0329;}
	.st13{clip-path:url(#SVGID_24_);fill:#DB0329;}
	.st14{clip-path:url(#SVGID_26_);fill:#DB0329;}
	.st15{clip-path:url(#SVGID_28_);fill:#DB0329;}
	.st16{fill:#3F3F3F;}
	.st17{fill:none;stroke:#DB0329;stroke-width:0.6936;stroke-miterlimit:10;}
	.st18{fill:#535454;}
	.st19{fill:none;stroke:#707070;stroke-width:0.6936;stroke-miterlimit:10;}
	.st20{fill:#DB0329;}
	.st21{fill:#757575;}
	.st22{fill:#B33ECC;}
	.st23{fill:none;stroke:#757575;stroke-width:0.6936;stroke-miterlimit:10;}
	.st24{font-family:'Nunito-SemiBold';}
	.st25{font-size:34.6799px;}
	.st26{font-size:20.808px;}
	.st27{font-size:15.2592px;}
	.st28{fill:#707070;}
	.st29{font-size:24.2759px;}
</style>
<rect class="st4" width="1116" height="380.1"/>
<path class="st16" d="M227.2,100.6h-34.3c-4.6,0-8.3-3.7-8.3-8.3V58c0-4.6,3.7-8.3,8.3-8.3h34.3c4.6,0,8.3,3.7,8.3,8.3v34.3
	C235.6,96.9,231.8,100.6,227.2,100.6z"/>
<path class="st16" d="M305.6,100.6h-34.3c-4.6,0-8.3-3.7-8.3-8.3V58c0-4.6,3.7-8.3,8.3-8.3h34.3c4.6,0,8.3,3.7,8.3,8.3v34.3
	C313.9,96.9,310.2,100.6,305.6,100.6z"/>
<path class="st16" d="M382.6,100.6h-34.3c-4.6,0-8.3-3.7-8.3-8.3V58c0-4.6,3.7-8.3,8.3-8.3h34.3c4.6,0,8.3,3.7,8.3,8.3v34.3
	C390.9,96.9,387.2,100.6,382.6,100.6z"/>
<path class="st16" d="M461,100.6h-34.3c-4.6,0-8.3-3.7-8.3-8.3V58c0-4.6,3.7-8.3,8.3-8.3H461c4.6,0,8.3,3.7,8.3,8.3v34.3
	C469.3,96.9,465.5,100.6,461,100.6z"/>
<path class="st16" d="M537.7,100.6h-34.3c-4.6,0-8.3-3.7-8.3-8.3V58c0-4.6,3.7-8.3,8.3-8.3h34.3c4.6,0,8.3,3.7,8.3,8.3v34.3
	C546,96.9,542.3,100.6,537.7,100.6z"/>
<path class="st16" d="M616.1,100.6h-34.3c-4.6,0-8.3-3.7-8.3-8.3V58c0-4.6,3.7-8.3,8.3-8.3h34.3c4.6,0,8.3,3.7,8.3,8.3v34.3
	C624.4,96.9,620.7,100.6,616.1,100.6z"/>
<path class="st16" d="M693.1,100.6h-34.3c-4.6,0-8.3-3.7-8.3-8.3V58c0-4.6,3.7-8.3,8.3-8.3h34.3c4.6,0,8.3,3.7,8.3,8.3v34.3
	C701.4,96.9,697.6,100.6,693.1,100.6z"/>
<path class="st16" d="M771.4,100.6h-34.3c-4.6,0-8.3-3.7-8.3-8.3V58c0-4.6,3.7-8.3,8.3-8.3h34.3c4.6,0,8.3,3.7,8.3,8.3v34.3
	C779.8,96.9,776,100.6,771.4,100.6z"/>
<path class="st16" d="M849.1,100.6h-34.3c-4.6,0-8.3-3.7-8.3-8.3V58c0-4.6,3.7-8.3,8.3-8.3h34.3c4.6,0,8.3,3.7,8.3,8.3v34.3
	C857.4,96.9,853.7,100.6,849.1,100.6z"/>
<path class="st17" d="M1070.5,271.9H215.1c-4.6,0-8.3-3.7-8.3-8.3V119.9c0-4.6,3.7-8.3,8.3-8.3h855.4c4.6,0,8.3,3.7,8.3,8.3v143.7
	C1078.8,268.1,1075.1,271.9,1070.5,271.9z"/>
<path class="st16" d="M927.5,100.6h-34.3c-4.6,0-8.3-3.7-8.3-8.3V58c0-4.6,3.7-8.3,8.3-8.3h34.3c4.6,0,8.3,3.7,8.3,8.3v34.3
	C935.8,96.9,932.1,100.6,927.5,100.6z"/>
<path class="st18" d="M1005.2,100.6h-34.3c-4.6,0-8.3-3.7-8.3-8.3V58c0-4.6,3.7-8.3,8.3-8.3h34.3c4.6,0,8.3,3.7,8.3,8.3v34.3
	C1013.5,96.9,1009.8,100.6,1005.2,100.6z"/>
<path class="st19" d="M267,179.5h-34.3c-4.6,0-8.3-3.7-8.3-8.3v-34.3c0-4.6,3.7-8.3,8.3-8.3H267c4.6,0,8.3,3.7,8.3,8.3v34.3
	C275.3,175.8,271.6,179.5,267,179.5z"/>
<path class="st20" d="M344.7,179.5h-34.3c-4.6,0-8.3-3.7-8.3-8.3v-34.3c0-4.6,3.7-8.3,8.3-8.3h34.3c4.6,0,8.3,3.7,8.3,8.3v34.3
	C353,175.8,349.3,179.5,344.7,179.5z"/>
<path class="st20" d="M421.7,179.5h-34.3c-4.6,0-8.3-3.7-8.3-8.3v-34.3c0-4.6,3.7-8.3,8.3-8.3h34.3c4.6,0,8.3,3.7,8.3,8.3v34.3
	C430,175.8,426.2,179.5,421.7,179.5z"/>
<path class="st19" d="M500,179.5h-34.3c-4.6,0-8.3-3.7-8.3-8.3v-34.3c0-4.6,3.7-8.3,8.3-8.3H500c4.6,0,8.3,3.7,8.3,8.3v34.3
	C508.4,175.8,504.6,179.5,500,179.5z"/>
<path class="st20" d="M577.5,179.5h-34.3c-4.6,0-8.3-3.7-8.3-8.3v-34.3c0-4.6,3.7-8.3,8.3-8.3h34.3c4.6,0,8.3,3.7,8.3,8.3v34.3
	C585.8,175.8,582.1,179.5,577.5,179.5z"/>
<path class="st20" d="M655.8,179.5h-34.3c-4.6,0-8.3-3.7-8.3-8.3v-34.3c0-4.6,3.7-8.3,8.3-8.3h34.3c4.6,0,8.3,3.7,8.3,8.3v34.3
	C664.2,175.8,660.4,179.5,655.8,179.5z"/>
<path class="st20" d="M732.8,179.5h-34.3c-4.6,0-8.3-3.7-8.3-8.3v-34.3c0-4.6,3.7-8.3,8.3-8.3h34.3c4.6,0,8.3,3.7,8.3,8.3v34.3
	C741.2,175.8,737.4,179.5,732.8,179.5z"/>
<path class="st19" d="M811.2,179.5h-34.3c-4.6,0-8.3-3.7-8.3-8.3v-34.3c0-4.6,3.7-8.3,8.3-8.3h34.3c4.6,0,8.3,3.7,8.3,8.3v34.3
	C819.5,175.8,815.8,179.5,811.2,179.5z"/>
<path class="st20" d="M888.9,179.5h-34.3c-4.6,0-8.3-3.7-8.3-8.3v-34.3c0-4.6,3.7-8.3,8.3-8.3h34.3c4.6,0,8.3,3.7,8.3,8.3v34.3
	C897.2,175.8,893.5,179.5,888.9,179.5z"/>
<path class="st20" d="M966.6,179.5h-34.3c-4.6,0-8.3-3.7-8.3-8.3v-34.3c0-4.6,3.7-8.3,8.3-8.3h34.3c4.6,0,8.3,3.7,8.3,8.3v34.3
	C974.9,175.8,971.1,179.5,966.6,179.5z"/>
<path class="st19" d="M1044.2,179.5h-34.3c-4.6,0-8.3-3.7-8.3-8.3v-34.3c0-4.6,3.7-8.3,8.3-8.3h34.3c4.6,0,8.3,3.7,8.3,8.3v34.3
	C1052.6,175.8,1048.8,179.5,1044.2,179.5z"/>
<path class="st21" d="M279.7,257.7h-34.3c-4.6,0-8.3-3.7-8.3-8.3v-34.3c0-4.6,3.7-8.3,8.3-8.3h34.3c4.6,0,8.3,3.7,8.3,8.3v34.3
	C288,254,284.2,257.7,279.7,257.7z"/>
<path class="st21" d="M357.3,257.7H323c-4.6,0-8.3-3.7-8.3-8.3v-34.3c0-4.6,3.7-8.3,8.3-8.3h34.3c4.6,0,8.3,3.7,8.3,8.3v34.3
	C365.7,254,361.9,257.7,357.3,257.7z"/>
<path class="st21" d="M434.3,257.7H400c-4.6,0-8.3-3.7-8.3-8.3v-34.3c0-4.6,3.7-8.3,8.3-8.3h34.3c4.6,0,8.3,3.7,8.3,8.3v34.3
	C442.6,254,438.9,257.7,434.3,257.7z"/>
<path class="st21" d="M512.7,257.7h-34.3c-4.6,0-8.3-3.7-8.3-8.3v-34.3c0-4.6,3.7-8.3,8.3-8.3h34.3c4.6,0,8.3,3.7,8.3,8.3v34.3
	C521,254,517.3,257.7,512.7,257.7z"/>
<path class="st21" d="M590.1,257.7h-34.3c-4.6,0-8.3-3.7-8.3-8.3v-34.3c0-4.6,3.7-8.3,8.3-8.3h34.3c4.6,0,8.3,3.7,8.3,8.3v34.3
	C598.5,254,594.7,257.7,590.1,257.7z"/>
<path class="st21" d="M668.5,257.7h-34.3c-4.6,0-8.3-3.7-8.3-8.3v-34.3c0-4.6,3.7-8.3,8.3-8.3h34.3c4.6,0,8.3,3.7,8.3,8.3v34.3
	C676.8,254,673.1,257.7,668.5,257.7z"/>
<path class="st21" d="M745.5,257.7h-34.3c-4.6,0-8.3-3.7-8.3-8.3v-34.3c0-4.6,3.7-8.3,8.3-8.3h34.3c4.6,0,8.3,3.7,8.3,8.3v34.3
	C753.8,254,750.1,257.7,745.5,257.7z"/>
<path class="st21" d="M823.9,257.7h-34.3c-4.6,0-8.3-3.7-8.3-8.3v-34.3c0-4.6,3.7-8.3,8.3-8.3h34.3c4.6,0,8.3,3.7,8.3,8.3v34.3
	C832.2,254,828.4,257.7,823.9,257.7z"/>
<path class="st21" d="M901.5,257.7h-34.3c-4.6,0-8.3-3.7-8.3-8.3v-34.3c0-4.6,3.7-8.3,8.3-8.3h34.3c4.6,0,8.3,3.7,8.3,8.3v34.3
	C909.9,254,906.1,257.7,901.5,257.7z"/>
<path class="st21" d="M979.2,257.7h-34.3c-4.6,0-8.3-3.7-8.3-8.3v-34.3c0-4.6,3.7-8.3,8.3-8.3h34.3c4.6,0,8.3,3.7,8.3,8.3v34.3
	C987.5,254,983.8,257.7,979.2,257.7z"/>
<path class="st21" d="M1056.9,257.7h-34.3c-4.6,0-8.3-3.7-8.3-8.3v-34.3c0-4.6,3.7-8.3,8.3-8.3h34.3c4.6,0,8.3,3.7,8.3,8.3v34.3
	C1065.2,254,1061.5,257.7,1056.9,257.7z"/>
<path class="st22" d="M318.7,334.5h-34.3c-4.6,0-8.3-3.7-8.3-8.3v-34.3c0-4.6,3.7-8.3,8.3-8.3h34.3c4.6,0,8.3,3.7,8.3,8.3v34.3
	C327,330.8,323.3,334.5,318.7,334.5z"/>
<path class="st22" d="M396.4,334.5h-34.3c-4.6,0-8.3-3.7-8.3-8.3v-34.3c0-4.6,3.7-8.3,8.3-8.3h34.3c4.6,0,8.3,3.7,8.3,8.3v34.3
	C404.7,330.8,401,334.5,396.4,334.5z"/>
<path class="st23" d="M473.4,334.5h-34.3c-4.6,0-8.3-3.7-8.3-8.3v-34.3c0-4.6,3.7-8.3,8.3-8.3h34.3c4.6,0,8.3,3.7,8.3,8.3v34.3
	C481.7,330.8,478,334.5,473.4,334.5z"/>
<path class="st23" d="M551.8,334.5h-34.3c-4.6,0-8.3-3.7-8.3-8.3v-34.3c0-4.6,3.7-8.3,8.3-8.3h34.3c4.6,0,8.3,3.7,8.3,8.3v34.3
	C560.1,330.8,556.3,334.5,551.8,334.5z"/>
<path class="st23" d="M629.2,334.5h-34.3c-4.6,0-8.3-3.7-8.3-8.3v-34.3c0-4.6,3.7-8.3,8.3-8.3h34.3c4.6,0,8.3,3.7,8.3,8.3v34.3
	C637.5,330.8,633.8,334.5,629.2,334.5z"/>
<path class="st23" d="M707.6,334.5h-34.3c-4.6,0-8.3-3.7-8.3-8.3v-34.3c0-4.6,3.7-8.3,8.3-8.3h34.3c4.6,0,8.3,3.7,8.3,8.3v34.3
	C715.9,330.8,712.2,334.5,707.6,334.5z"/>
<path class="st23" d="M784.6,334.5h-34.3c-4.6,0-8.3-3.7-8.3-8.3v-34.3c0-4.6,3.7-8.3,8.3-8.3h34.3c4.6,0,8.3,3.7,8.3,8.3v34.3
	C792.9,330.8,789.1,334.5,784.6,334.5z"/>
<path class="st23" d="M862.9,334.5h-34.3c-4.6,0-8.3-3.7-8.3-8.3v-34.3c0-4.6,3.7-8.3,8.3-8.3h34.3c4.6,0,8.3,3.7,8.3,8.3v34.3
	C871.3,330.8,867.5,334.5,862.9,334.5z"/>
<path class="st23" d="M940.6,334.5h-34.3c-4.6,0-8.3-3.7-8.3-8.3v-34.3c0-4.6,3.7-8.3,8.3-8.3h34.3c4.6,0,8.3,3.7,8.3,8.3v34.3
	C948.9,330.8,945.2,334.5,940.6,334.5z"/>
<path class="st23" d="M1018.3,334.5H984c-4.6,0-8.3-3.7-8.3-8.3v-34.3c0-4.6,3.7-8.3,8.3-8.3h34.3c4.6,0,8.3,3.7,8.3,8.3v34.3
	C1026.6,330.8,1022.9,334.5,1018.3,334.5z"/>
<text transform="matrix(1 0 0 1 953.0146 99.8786)" class="st24 st25">   - </text>
<text transform="matrix(1 0 0 1 872.9072 75.1511)"><tspan x="0" y="0" class="st24 st25">  </tspan><tspan x="18.3" y="0" class="st24 st26">127</tspan><tspan x="55.8" y="0" class="st24 st25"> </tspan></text>
<text transform="matrix(1 0 0 1 795.4297 75.1501)"><tspan x="0" y="0" class="st24 st25">  </tspan><tspan x="18.3" y="0" class="st24 st26">112</tspan><tspan x="55.8" y="0" class="st24 st25"> </tspan></text>
<text transform="matrix(1 0 0 1 724.915 75.1501)"><tspan x="0" y="0" class="st24 st25">  </tspan><tspan x="18.3" y="0" class="st24 st26">98</tspan><tspan x="43.3" y="0" class="st24 st25"> </tspan></text>
<text transform="matrix(1 0 0 1 646.3135 75.1501)"><tspan x="0" y="0" class="st24 st25">  </tspan><tspan x="18.3" y="0" class="st24 st26">84</tspan><tspan x="43.3" y="0" class="st24 st25"> </tspan></text>
<text transform="matrix(1 0 0 1 568.8076 75.1501)"><tspan x="0" y="0" class="st24 st25">  </tspan><tspan x="18.3" y="0" class="st24 st26">70</tspan><tspan x="43.3" y="0" class="st24 st25"> </tspan></text>
<text transform="matrix(1 0 0 1 490.8984 75.1501)"><tspan x="0" y="0" class="st24 st25">  </tspan><tspan x="18.3" y="0" class="st24 st26">56</tspan><tspan x="43.3" y="0" class="st24 st25"> </tspan></text>
<text transform="matrix(1 0 0 1 411.6035 75.1501)"><tspan x="0" y="0" class="st24 st25">  </tspan><tspan x="18.3" y="0" class="st24 st26">42</tspan><tspan x="43.3" y="0" class="st24 st25"> </tspan></text>
<text transform="matrix(1 0 0 1 335.4844 75.1501)"><tspan x="0" y="0" class="st24 st25">  </tspan><tspan x="18.3" y="0" class="st24 st26">28</tspan><tspan x="43.3" y="0" class="st24 st25"> </tspan></text>
<text transform="matrix(1 0 0 1 257.8052 75.1501)"><tspan x="0" y="0" class="st24 st25">  </tspan><tspan x="18.3" y="0" class="st24 st26">14</tspan><tspan x="43.3" y="0" class="st24 st25"> </tspan></text>
<text transform="matrix(1 0 0 1 185.9653 75.1501)"><tspan x="0" y="0" class="st24 st25">  </tspan><tspan x="18.3" y="0" class="st24 st26">1</tspan><tspan x="30.8" y="0" class="st24 st25"> </tspan></text>
<text transform="matrix(1 0 0 1 197.7563 93.8776)" class="st24 st27">  1 </text>
<text transform="matrix(1 0 0 1 274.7427 93.8776)" class="st24 st27">  2 </text>
<text transform="matrix(1 0 0 1 351.957 93.8776)" class="st24 st27">  3 </text>
<text transform="matrix(1 0 0 1 430.1006 93.8776)" class="st24 st27">  4 </text>
<text transform="matrix(1 0 0 1 506.8506 93.8776)" class="st24 st27">  5 </text>
<text transform="matrix(1 0 0 1 585.2236 93.8776)" class="st24 st27">  5 </text>
<text transform="matrix(1 0 0 1 663.1328 93.8776)" class="st24 st27">  6 </text>
<text transform="matrix(1 0 0 1 740.582 93.8776)" class="st24 st27">  7 </text>
<text transform="matrix(1 0 0 1 818.4902 93.8776)" class="st24 st27">  8 </text>
<text transform="matrix(1 0 0 1 896.1689 93.8776)" class="st24 st27">  9 </text>
<g>
	<text transform="matrix(1 0 0 1 974.1895 309.0539)" class="st28 st24 st26">  /</text>
</g>
<g>
	<text transform="matrix(1 0 0 1 896.7109 309.0539)" class="st28 st24 st26">  . </text>
</g>
<g>
	<text transform="matrix(1 0 0 1 826.1973 309.0539)" class="st28 st24 st26"> , </text>
</g>
<g>
	<text transform="matrix(1 0 0 1 747.5957 309.0539)" class="st28 st24 st26">  M </text>
</g>
<g>
	<text transform="matrix(1 0 0 1 670.0889 309.0539)" class="st28 st24 st26"> N </text>
</g>
<g>
	<text transform="matrix(1 0 0 1 592.1807 309.0539)" class="st28 st24 st26">  B </text>
</g>
<g>
	<text transform="matrix(1 0 0 1 512.8848 309.0539)" class="st28 st24 st26">  V </text>
</g>
<g>
	<text transform="matrix(1 0 0 1 436.7656 309.0539)" class="st28 st24 st26">  C</text>
</g>
<text transform="matrix(1 0 0 1 347.9902 309.0539)"><tspan x="0" y="0" class="st24 st25">  </tspan><tspan x="18.3" y="0" class="st24 st26">X</tspan><tspan x="31.9" y="0" class="st24 st25"> </tspan></text>
<text transform="matrix(1 0 0 1 276.1499 309.0539)"><tspan x="0" y="0" class="st24 st25">  </tspan><tspan x="18.3" y="0" class="st24 st26">Z</tspan></text>
<text transform="matrix(1 0 0 1 927.8828 232.2424)"><tspan x="0" y="0" class="st24 st25">  </tspan><tspan x="18.3" y="0" class="st24 st26">;</tspan><tspan x="23.3" y="0" class="st24 st25"> </tspan></text>
<text transform="matrix(1 0 0 1 1019.4385 232.2424)" class="st24 st26"> ’ </text>
<text transform="matrix(1 0 0 1 849.0176 232.2424)"><tspan x="0" y="0" class="st24 st25">  </tspan><tspan x="18.3" y="0" class="st24 st26">L</tspan><tspan x="29.7" y="0" class="st24 st25"> </tspan></text>
<text transform="matrix(1 0 0 1 773.6484 232.2424)"><tspan x="0" y="0" class="st24 st25">  </tspan><tspan x="18.3" y="0" class="st24 st26">K</tspan><tspan x="31.7" y="0" class="st24 st25"> </tspan></text>
<text transform="matrix(1 0 0 1 696.4336 232.2424)"><tspan x="0" y="0" class="st24 st25">  </tspan><tspan x="18.3" y="0" class="st24 st26">J</tspan><tspan x="25.4" y="0" class="st24 st25"> </tspan></text>
<text transform="matrix(1 0 0 1 616.8467 232.2424)"><tspan x="0" y="0" class="st24 st25">  </tspan><tspan x="18.3" y="0" class="st24 st26">H</tspan><tspan x="34.2" y="0" class="st24 st25"> </tspan></text>
<text transform="matrix(1 0 0 1 538.9385 232.2424)"><tspan x="0" y="0" class="st24 st25">  </tspan><tspan x="18.3" y="0" class="st24 st26">G</tspan><tspan x="33.5" y="0" class="st24 st25"> </tspan></text>
<text transform="matrix(1 0 0 1 461.0293 232.2424)"><tspan x="0" y="0" class="st24 st25">  </tspan><tspan x="18.3" y="0" class="st24 st26">F</tspan><tspan x="30" y="0" class="st24 st25"> </tspan></text>
<text transform="matrix(1 0 0 1 382.8301 232.2424)"><tspan x="0" y="0" class="st24 st25">  </tspan><tspan x="18.3" y="0" class="st24 st26">D</tspan><tspan x="33.8" y="0" class="st24 st25"> </tspan></text>
<text transform="matrix(1 0 0 1 305.1509 232.2424)"><tspan x="0" y="0" class="st24 st25">  </tspan><tspan x="18.3" y="0" class="st24 st26">S</tspan></text>
<text transform="matrix(1 0 0 1 226.3755 232.2424)"><tspan x="0" y="0" class="st24 st25">  </tspan><tspan x="18.3" y="0" class="st24 st26">A</tspan></text>
<text transform="matrix(1 0 0 1 914.3594 154.0441)"><tspan x="0" y="0" class="st24 st25">  </tspan><tspan x="18.3" y="0" class="st24 st26">P</tspan><tspan x="31.9" y="0" class="st24 st25"> </tspan></text>
<text transform="matrix(1 0 0 1 996.8975 154.0441)"><tspan x="0" y="0" class="st24 st26">  </tspan><tspan x="11" y="0" class="st28 st24 st26">[</tspan><tspan x="17.9" y="0" class="st24 st26"> </tspan></text>
<text transform="matrix(1 0 0 1 837.5742 154.0432)"><tspan x="0" y="0" class="st24 st25">  </tspan><tspan x="18.3" y="0" class="st24 st26">O</tspan><tspan x="34.4" y="0" class="st24 st25"> </tspan></text>
<g>
	<text transform="matrix(1 0 0 1 770.5283 154.0432)" class="st28 st24 st26">  I </text>
</g>
<text transform="matrix(1 0 0 1 680.8281 154.0432)"><tspan x="0" y="0" class="st24 st25">  </tspan><tspan x="18.3" y="0" class="st24 st26">U</tspan><tspan x="33.5" y="0" class="st24 st25"> </tspan></text>
<text transform="matrix(1 0 0 1 604.709 154.0432)"><tspan x="0" y="0" class="st24 st25">  </tspan><tspan x="18.3" y="0" class="st24 st26">Y</tspan><tspan x="31" y="0" class="st24 st25"> </tspan></text>
<text transform="matrix(1 0 0 1 526.8008 154.0432)"><tspan x="0" y="0" class="st24 st25">  </tspan><tspan x="18.3" y="0" class="st24 st26">T</tspan></text>
<g>
	<text transform="matrix(1 0 0 1 455.8291 154.0432)" class="st28 st24 st26">  R </text>
</g>
<text transform="matrix(1 0 0 1 369.3057 154.0432)"><tspan x="0" y="0" class="st24 st25">  </tspan><tspan x="18.3" y="0" class="st24 st26">E</tspan><tspan x="30.5" y="0" class="st24 st25"> </tspan></text>
<text transform="matrix(1 0 0 1 290.2388 154.7365)"><tspan x="0" y="0" class="st24 st25">  </tspan><tspan x="18.3" y="0" class="st24 st26">W</tspan><tspan x="41.3" y="0" class="st24 st25"> </tspan></text>
<text transform="matrix(1 0 0 1 221.1733 154.0432)" class="st28 st24 st26">  Q </text>
<text transform="matrix(1 0 0 1 41.6128 85.3132)" class="st16 st24 st29">VELOCITY</text>
<g>
	<text transform="matrix(1 0 0 1 52.7104 318.3635)" class="st22 st24 st29">OCTAVES</text>
</g>
<text transform="matrix(1 0 0 1 107.3999 206.0598)" class="st20 st24 st29">KEYS</text>
</svg>
