<svg id="Capa_1" data-name="Capa 1" xmlns="http://www.w3.org/2000/svg" viewBox="0 0 1601 541"><defs><style>.cls-1{fill:#151515;}.cls-18,.cls-2{fill:#3f3f3f;}.cls-3,.cls-5,.cls-9{fill:none;stroke-miterlimit:10;}.cls-3{stroke:#db0329;}.cls-4{fill:#535454;}.cls-5{stroke:#707070;}.cls-26,.cls-6{fill:#db0329;}.cls-7{fill:#757575;}.cls-21,.cls-8{fill:#b33ecc;}.cls-9{stroke:#757575;}.cls-10{font-size:50px;}.cls-10,.cls-13,.cls-14,.cls-16,.cls-18,.cls-21,.cls-26{font-family:Nunito-SemiBold, Nunito;font-weight:700;}.cls-11,.cls-14,.cls-15,.cls-16{font-size:30px;}.cls-12{letter-spacing:0em;}.cls-13{font-size:22px;}.cls-14,.cls-17{fill:#707070;}.cls-15{letter-spacing:0em;}.cls-18,.cls-21,.cls-26{font-size:35px;}.cls-19{letter-spacing:-0.04em;}.cls-20{letter-spacing:0.01em;}.cls-22{letter-spacing:-0.01em;}.cls-23{letter-spacing:-0.09em;}.cls-24{letter-spacing:-0.06em;}.cls-25{letter-spacing:-0.01em;}.cls-27{letter-spacing:0em;}.cls-28{letter-spacing:-0.02em;}</style></defs><title>audiokeys-mapping</title><rect class="cls-1" y="-7" width="1609" height="548"/><rect class="cls-2" x="266.12" y="64.6" width="73.5" height="73.5" rx="12" ry="12"/><rect class="cls-2" x="379.11" y="64.6" width="73.5" height="73.5" rx="12" ry="12"/><rect class="cls-2" x="490.11" y="64.6" width="73.5" height="73.5" rx="12" ry="12"/><rect class="cls-2" x="603.1" y="64.6" width="73.5" height="73.5" rx="12" ry="12"/><rect class="cls-2" x="713.76" y="64.6" width="73.5" height="73.5" rx="12" ry="12"/><rect class="cls-2" x="826.75" y="64.6" width="73.5" height="73.5" rx="12" ry="12"/><rect class="cls-2" x="937.74" y="64.6" width="73.5" height="73.5" rx="12" ry="12"/><rect class="cls-2" x="1050.74" y="64.6" width="73.5" height="73.5" rx="12" ry="12"/><rect class="cls-2" x="1162.73" y="64.6" width="73.5" height="73.5" rx="12" ry="12"/><rect class="cls-3" x="298.17" y="153.83" width="1257.21" height="231.17" rx="12" ry="12"/><rect class="cls-2" x="1275.73" y="64.6" width="73.5" height="73.5" rx="12" ry="12"/><rect class="cls-4" x="1387.72" y="64.6" width="73.5" height="73.5" rx="12" ry="12"/><rect class="cls-5" x="323.45" y="178.34" width="73.5" height="73.5" rx="12" ry="12"/><rect class="cls-6" x="435.44" y="178.34" width="73.5" height="73.5" rx="12" ry="12"/><rect class="cls-6" x="546.43" y="178.34" width="73.5" height="73.5" rx="12" ry="12"/><rect class="cls-5" x="659.43" y="178.34" width="73.5" height="73.5" rx="12" ry="12"/><rect class="cls-6" x="771.08" y="178.34" width="73.5" height="73.5" rx="12" ry="12"/><rect class="cls-6" x="884.08" y="178.34" width="73.5" height="73.5" rx="12" ry="12"/><rect class="cls-6" x="995.07" y="178.34" width="73.5" height="73.5" rx="12" ry="12"/><rect class="cls-5" x="1108.07" y="178.34" width="73.5" height="73.5" rx="12" ry="12"/><rect class="cls-6" x="1220.06" y="178.34" width="73.5" height="73.5" rx="12" ry="12"/><rect class="cls-6" x="1332.06" y="178.34" width="73.5" height="73.5" rx="12" ry="12"/><rect class="cls-5" x="1444.05" y="178.34" width="73.5" height="73.5" rx="12" ry="12"/><rect class="cls-7" x="341.69" y="291.09" width="73.5" height="73.5" rx="12" ry="12"/><rect class="cls-7" x="453.69" y="291.09" width="73.5" height="73.5" rx="12" ry="12"/><rect class="cls-7" x="564.68" y="291.09" width="73.5" height="73.5" rx="12" ry="12"/><rect class="cls-7" x="677.68" y="291.09" width="73.5" height="73.5" rx="12" ry="12"/><rect class="cls-7" x="789.33" y="291.09" width="73.5" height="73.5" rx="12" ry="12"/><rect class="cls-7" x="902.33" y="291.09" width="73.5" height="73.5" rx="12" ry="12"/><rect class="cls-7" x="1013.32" y="291.09" width="73.5" height="73.5" rx="12" ry="12"/><rect class="cls-7" x="1126.32" y="291.09" width="73.5" height="73.5" rx="12" ry="12"/><rect class="cls-7" x="1238.31" y="291.09" width="73.5" height="73.5" rx="12" ry="12"/><rect class="cls-7" x="1350.3" y="291.09" width="73.5" height="73.5" rx="12" ry="12"/><rect class="cls-7" x="1462.3" y="291.09" width="73.5" height="73.5" rx="12" ry="12"/><rect class="cls-8" x="398.02" y="401.83" width="73.5" height="73.5" rx="12" ry="12"/><rect class="cls-8" x="510.02" y="401.83" width="73.5" height="73.5" rx="12" ry="12"/><rect class="cls-9" x="621.01" y="401.83" width="73.5" height="73.5" rx="12" ry="12"/><rect class="cls-9" x="734.01" y="401.83" width="73.5" height="73.5" rx="12" ry="12"/><rect class="cls-9" x="845.66" y="401.83" width="73.5" height="73.5" rx="12" ry="12"/><rect class="cls-9" x="958.66" y="401.83" width="73.5" height="73.5" rx="12" ry="12"/><rect class="cls-9" x="1069.65" y="401.83" width="73.5" height="73.5" rx="12" ry="12"/><rect class="cls-9" x="1182.64" y="401.83" width="73.5" height="73.5" rx="12" ry="12"/><rect class="cls-9" x="1294.64" y="401.83" width="73.5" height="73.5" rx="12" ry="12"/><rect class="cls-9" x="1406.63" y="401.83" width="73.5" height="73.5" rx="12" ry="12"/><text class="cls-10" transform="translate(1374.01 137)"><tspan xml:space="preserve">   - </tspan></text><text class="cls-10" transform="translate(1258.52 101.35)"><tspan xml:space="preserve">  </tspan><tspan class="cls-11" x="26.4" y="0">127</tspan><tspan x="80.4" y="0"> </tspan></text><text class="cls-10" transform="translate(1146.82 101.35)"><tspan xml:space="preserve">  </tspan><tspan class="cls-11" x="26.4" y="0">112</tspan><tspan x="80.4" y="0"> </tspan></text><text class="cls-10" transform="translate(1045.15 101.35)"><tspan xml:space="preserve">  </tspan><tspan class="cls-11" x="26.4" y="0">98</tspan><tspan class="cls-12" x="62.4" y="0"> </tspan></text><text class="cls-10" transform="translate(931.83 101.35)"><tspan xml:space="preserve">  </tspan><tspan class="cls-11" x="26.4" y="0">84</tspan><tspan class="cls-12" x="62.4" y="0"> </tspan></text><text class="cls-10" transform="translate(820.08 101.35)"><tspan xml:space="preserve">  </tspan><tspan class="cls-11" x="26.4" y="0">70</tspan><tspan class="cls-12" x="62.4" y="0"> </tspan></text><text class="cls-10" transform="translate(707.76 101.35)"><tspan xml:space="preserve">  </tspan><tspan class="cls-11" x="26.4" y="0">56</tspan><tspan x="62.37" y="0"> </tspan></text><text class="cls-10" transform="translate(593.43 101.35)"><tspan xml:space="preserve">  </tspan><tspan class="cls-11" x="26.4" y="0">42</tspan><tspan class="cls-12" x="62.4" y="0"> </tspan></text><text class="cls-10" transform="translate(483.69 101.35)"><tspan xml:space="preserve">  </tspan><tspan class="cls-11" x="26.4" y="0">28</tspan><tspan class="cls-12" x="62.4" y="0"> </tspan></text><text class="cls-10" transform="translate(371.69 101.35)"><tspan xml:space="preserve">  </tspan><tspan class="cls-11" x="26.4" y="0">14</tspan><tspan class="cls-12" x="62.4" y="0"> </tspan></text><text class="cls-10" transform="translate(268.12 101.35)"><tspan xml:space="preserve">  </tspan><tspan class="cls-11" x="26.4" y="0">1</tspan><tspan x="44.4" y="0"> </tspan></text><text class="cls-13" transform="translate(285.12 128.35)"><tspan xml:space="preserve">  1 </tspan></text><text class="cls-13" transform="translate(396.11 128.35)"><tspan xml:space="preserve">  2 </tspan></text><text class="cls-13" transform="translate(507.44 128.35)"><tspan xml:space="preserve">  3 </tspan></text><text class="cls-13" transform="translate(620.1 128.35)"><tspan xml:space="preserve">  4 </tspan></text><text class="cls-13" transform="translate(730.76 128.35)"><tspan xml:space="preserve">  5 </tspan></text><text class="cls-13" transform="translate(843.75 128.35)"><tspan xml:space="preserve">  5 </tspan></text><text class="cls-13" transform="translate(956.08 128.35)"><tspan xml:space="preserve">  6 </tspan></text><text class="cls-13" transform="translate(1067.74 128.35)"><tspan xml:space="preserve">  7 </tspan></text><text class="cls-13" transform="translate(1180.06 128.35)"><tspan xml:space="preserve">  8 </tspan></text><text class="cls-13" transform="translate(1292.06 128.35)"><tspan xml:space="preserve">  9 </tspan></text><text class="cls-14" transform="translate(1404.54 438.58)"><tspan xml:space="preserve">  /</tspan></text><text class="cls-14" transform="translate(1292.84 438.58)"><tspan xml:space="preserve">  . </tspan></text><text class="cls-14" transform="translate(1191.17 438.58)"><tspan xml:space="preserve"> , </tspan></text><text class="cls-14" transform="translate(1077.85 438.58)"><tspan xml:space="preserve">  M </tspan></text><text class="cls-14" transform="translate(966.1 438.58)"><tspan xml:space="preserve"> N </tspan></text><text class="cls-14" transform="translate(853.78 438.58)"><tspan xml:space="preserve">  B </tspan></text><text class="cls-14" transform="translate(739.45 438.58)"><tspan xml:space="preserve">  V </tspan></text><text class="cls-14" transform="translate(629.71 438.58)"><tspan xml:space="preserve">  C</tspan></text><text class="cls-10" transform="translate(501.72 438.58)"><tspan xml:space="preserve">  </tspan><tspan class="cls-15" x="26.4" y="0">X</tspan><tspan class="cls-12" x="46.02" y="0"> </tspan></text><text class="cls-10" transform="translate(398.14 438.58)"><tspan xml:space="preserve">  </tspan><tspan class="cls-11" x="26.4" y="0">Z</tspan></text><text class="cls-10" transform="translate(1337.78 327.84)"><tspan xml:space="preserve">  </tspan><tspan class="cls-11" x="26.4" y="0">;</tspan><tspan x="33.54" y="0"> </tspan></text><text class="cls-16" transform="translate(1469.78 327.84)"><tspan xml:space="preserve"> ’ </tspan></text><text class="cls-10" transform="translate(1224.08 327.84)"><tspan xml:space="preserve">  </tspan><tspan class="cls-11" x="26.4" y="0">L</tspan><tspan x="42.81" y="0"> </tspan></text><text class="cls-10" transform="translate(1115.41 327.84)"><tspan xml:space="preserve">  </tspan><tspan class="cls-11" x="26.4" y="0">K</tspan><tspan x="45.66" y="0"> </tspan></text><text class="cls-10" transform="translate(1004.09 327.84)"><tspan xml:space="preserve">  </tspan><tspan class="cls-11" x="26.4" y="0">J</tspan><tspan x="36.63" y="0"> </tspan></text><text class="cls-10" transform="translate(889.34 327.84)"><tspan xml:space="preserve">  </tspan><tspan class="cls-11" x="26.4" y="0">H</tspan><tspan class="cls-12" x="49.26" y="0"> </tspan></text><text class="cls-10" transform="translate(777.02 327.84)"><tspan xml:space="preserve">  </tspan><tspan class="cls-11" x="26.4" y="0">G</tspan><tspan x="48.24" y="0"> </tspan></text><text class="cls-10" transform="translate(664.69 327.84)"><tspan xml:space="preserve">  </tspan><tspan class="cls-15" x="26.4" y="0">F</tspan><tspan class="cls-12" x="43.23" y="0"> </tspan></text><text class="cls-10" transform="translate(551.95 327.84)"><tspan xml:space="preserve">  </tspan><tspan class="cls-11" x="26.4" y="0">D</tspan><tspan x="48.78" y="0"> </tspan></text><text class="cls-10" transform="translate(439.95 327.84)"><tspan xml:space="preserve">  </tspan><tspan class="cls-11" x="26.4" y="0">S</tspan></text><text class="cls-10" transform="translate(326.38 327.84)"><tspan xml:space="preserve">  </tspan><tspan class="cls-11" x="26.4" y="0">A</tspan></text><text class="cls-10" transform="translate(1318.28 215.09)"><tspan xml:space="preserve">  </tspan><tspan class="cls-11" x="26.4" y="0">P</tspan><tspan x="45.96" y="0"> </tspan></text><text class="cls-16" transform="translate(1437.28 215.09)"><tspan xml:space="preserve">  </tspan><tspan class="cls-17" x="15.84" y="0">[</tspan><tspan x="25.77" y="0"> </tspan></text><text class="cls-10" transform="translate(1207.58 215.09)"><tspan xml:space="preserve">  </tspan><tspan class="cls-11" x="26.4" y="0">O</tspan><tspan x="49.53" y="0"> </tspan></text><text class="cls-14" transform="translate(1110.91 215.09)"><tspan xml:space="preserve">  I </tspan></text><text class="cls-10" transform="translate(981.59 215.09)"><tspan xml:space="preserve">  </tspan><tspan class="cls-11" x="26.4" y="0">U</tspan><tspan x="48.24" y="0"> </tspan></text><text class="cls-10" transform="translate(871.84 215.09)"><tspan xml:space="preserve">  </tspan><tspan class="cls-15" x="26.4" y="0">Y</tspan><tspan class="cls-12" x="44.73" y="0"> </tspan></text><text class="cls-10" transform="translate(759.52 215.09)"><tspan xml:space="preserve">  </tspan><tspan class="cls-11" x="26.4" y="0">T</tspan></text><text class="cls-14" transform="translate(657.19 215.09)"><tspan xml:space="preserve">  R </tspan></text><text class="cls-10" transform="translate(532.45 215.09)"><tspan xml:space="preserve">  </tspan><tspan class="cls-11" x="26.4" y="0">E</tspan><tspan x="43.95" y="0"> </tspan></text><text class="cls-10" transform="translate(418.45 216.09)"><tspan xml:space="preserve">  </tspan><tspan class="cls-11" x="26.4" y="0">W</tspan><tspan class="cls-12" x="59.55" y="0"> </tspan></text><text class="cls-14" transform="translate(318.88 215.09)"><tspan xml:space="preserve">  Q </tspan></text><text class="cls-18" transform="translate(60 116)">VE<tspan class="cls-19" x="45.01" y="0">L</tspan><tspan x="62.86" y="0">OCI</tspan><tspan class="cls-20" x="122.88" y="0">T</tspan><tspan x="144.48" y="0">Y</tspan></text><text class="cls-21" transform="translate(76 452)">O<tspan class="cls-22" x="26.98" y="0">C</tspan><tspan class="cls-23" x="50.33" y="0">T</tspan><tspan class="cls-24" x="68.53" y="0">A</tspan><tspan x="91.95" y="0">V</tspan><tspan class="cls-25" x="116.48" y="0">E</tspan><tspan x="136.6" y="0">S</tspan></text><text class="cls-26" transform="translate(154.84 290.09)">K<tspan class="cls-27" x="22.47" y="0">E</tspan><tspan class="cls-28" x="42.77" y="0">Y</tspan><tspan x="63.35" y="0">S</tspan></text></svg>